<svg width="473" height="1212" viewBox="0 0 473 1212" fill="none" xmlns="http://www.w3.org/2000/svg">
<path fill-rule="evenodd" clip-rule="evenodd" d="M-270.413 -165.938C-270.413 -164.08 -268.376 -162.557 -265.886 -162.557C-254.592 -162.557 -254.845 -154.443 -267.456 -111.623C-274.411 -88.009 -281.247 -67.6384 -282.65 -66.3559C-284.049 -65.0765 -288.152 -63.3366 -291.766 -62.489C-295.38 -61.6415 -289.466 -60.9506 -278.626 -60.9506C-267.785 -60.9506 -261.504 -61.6095 -264.664 -62.4123C-267.877 -63.2311 -270.413 -66.89 -270.413 -70.7089C-270.413 -78.7561 -254.01 -137.424 -250.735 -141.086C-249.5 -142.471 -240.742 -124.122 -231.277 -100.307C-221.816 -76.4948 -212.976 -57.0102 -211.633 -57.0102C-210.292 -57.0102 -202.911 -78.9576 -195.227 -105.786C-183.864 -145.471 -179.619 -155.898 -172.455 -161.742L-163.647 -168.922L-180.894 -168.938C-190.378 -168.948 -198.141 -167.515 -198.141 -165.756C-198.141 -163.996 -195.923 -162.557 -193.213 -162.557C-190.503 -162.557 -188.289 -160.756 -188.292 -158.559C-188.312 -150.176 -206.764 -91.8151 -209.392 -91.8375C-210.91 -91.8503 -219.014 -108.847 -227.404 -129.607L-242.66 -167.355L-256.537 -168.337C-264.736 -168.919 -270.413 -167.937 -270.413 -165.938ZM-248.991 27.5777L-254.97 80.1785L-273.369 82.0559C-394.054 94.3697 -492.43 140.113 -568.283 219.193C-637.707 291.57 -679.447 383.421 -689.286 485.456L-691.477 508.187L-747.038 513.932C-777.596 517.092 -802.599 520.536 -802.599 521.589C-802.599 522.638 -701.707 523.095 -578.391 522.606C-455.078 522.113 -329.791 522.113 -299.979 522.606L-245.775 523.498L-285.196 563.081C-306.877 584.853 -350.487 626.521 -382.106 655.675C-413.725 684.828 -441.744 711.634 -444.365 715.242C-449.904 722.851 -449.224 722.441 -424.474 703.18C-416.156 696.71 -407.658 691.414 -405.585 691.414C-403.512 691.414 -401.817 690.006 -401.817 688.289C-401.817 686.571 -398.154 682.826 -393.673 679.97C-385.877 674.996 -385.004 675.179 -373.141 684.198C-348.966 702.586 -303.743 723.398 -287.965 723.398C-281.405 723.398 -282.62 718.43 -289.302 717.938C-300.757 717.094 -332.57 703.727 -351.377 691.861C-383.808 671.395 -384.271 673.63 -340.77 640.709C-319.709 624.772 -301.513 611.31 -300.33 610.795C-299.148 610.277 -286.612 592.219 -272.473 570.665C-258.33 549.111 -245.39 530.653 -243.715 529.642C-241.849 528.519 -241.021 632.643 -241.58 798.317C-242.079 947.096 -241.662 1068.82 -240.647 1068.82C-239.635 1068.82 -235.404 1039.68 -231.248 1004.06C-220.138 908.831 -224.215 919.686 -198.601 917.15C-174.452 914.754 -131.187 905.859 -133.368 903.736C-134.131 902.99 -144.216 904.503 -155.773 907.097C-167.33 909.691 -186.984 912.819 -199.445 914.047L-222.102 916.28L-220.19 908.594C-219.139 904.366 -217.25 890.114 -215.995 876.92C-213.173 847.223 -210.437 841.738 -198.446 841.738C-183.095 841.738 -128.999 827.192 -105.08 816.634C-16.1989 777.396 52.5648 697.548 76.4639 605.828C80.8167 589.123 84.4008 571.679 84.4271 567.066C84.519 551.65 87.6497 550.374 140.609 544.115C211.324 535.761 205.223 534.734 203.571 554.682C202.809 563.916 199.99 583.509 197.31 598.222C194.629 612.935 193.085 625.603 193.88 626.377C195.526 627.98 204.428 580.426 207.493 553.668L209.533 535.866L265.219 529.971C295.846 526.728 320.905 523.226 320.905 522.187C320.905 521.15 195.877 520.699 43.0644 521.186C-127.1 521.729 -234.047 520.923 -232.894 519.107C-231.856 517.475 -212.897 504.877 -190.759 491.108C-168.621 477.342 -150.053 465.076 -149.498 463.854C-148.943 462.633 -134.16 443.669 -116.647 421.712C-99.1344 399.755 -81.5361 377.693 -77.5414 372.684L-70.2781 363.578L-60.5082 374.773C-38.6821 399.784 -15.1411 446.375 -11.6982 471.38C-10.7784 478.055 -8.62341 483.518 -6.91187 483.518C-0.68988 483.518 -13.0715 441.072 -27.4766 413.016C-32.4831 403.267 -43.2023 386.76 -51.2968 376.334L-66.014 357.38L-51.0865 338.493C-39.3029 323.582 -37.9495 320.749 -44.6511 325.025C-49.3192 328.003 -55.5247 333.984 -58.4386 338.314C-61.3689 342.667 -65.3735 345.21 -67.3872 343.995C-69.4864 342.734 -70.1205 343.246 -68.8787 345.2C-67.6895 347.075 -105.78 387.128 -153.762 434.451L-240.804 520.3L-240.006 247.637C-239.566 97.6704 -240.062 -25.0263 -241.11 -25.0263C-242.154 -25.0263 -245.702 -1.35495 -248.991 27.5777ZM-306.204 56.1265C-311.677 62.5489 -307.009 71.4436 -298.773 70.2954C-290.705 69.1696 -287.426 58.5637 -293.908 54.5657C-299.995 50.8076 -301.874 51.0475 -306.204 56.1265ZM-184.179 53.8525C-189.931 56.1137 -189.314 67.5448 -183.315 69.7837C-175.355 72.7582 -168.076 65.0149 -172.044 57.7961C-175.464 51.5784 -177.063 51.0571 -184.179 53.8525ZM-369.787 64.7846C-376.876 68.805 -377.29 81.5185 -370.51 86.9974C-366.669 90.0998 -363.575 90.2086 -357.369 87.4548C-347.343 83.009 -346.299 69.4926 -355.609 64.6407C-363.171 60.7002 -362.573 60.6938 -369.787 64.7846ZM-125.629 67.4936C-133.792 75.4416 -134.078 78.4673 -127.278 85.0912C-120.678 91.5135 -114.581 91.4624 -107.87 84.9312C-101.138 78.3745 -102.502 71.3893 -111.667 65.4754C-118.099 61.3239 -119.499 61.5254 -125.629 67.4936ZM-227.707 85.2287C-227.707 89.006 -223.699 90.1158 -210.069 90.1158C-163.47 90.1158 -88.0867 110.809 -33.5639 138.568C48.0412 180.119 116.999 249.175 159.183 331.594C182.293 376.749 201.087 444.456 203.347 490.714C203.84 500.831 205.453 509.105 206.928 509.105C210.657 509.105 206.541 468.802 199.028 431.742C172.609 301.446 83.5433 187.67 -39.0795 127.579C-85.7443 104.71 -149.347 87.426 -205.532 82.3469C-224.129 80.6646 -227.707 81.1316 -227.707 85.2287ZM-431.402 88.539C-435.039 92.8057 -434.894 94.4624 -430.535 98.7099C-423.489 105.567 -414.202 101.758 -415.548 92.5626C-416.833 83.8022 -425.492 81.6049 -431.402 88.539ZM-63.4517 94.9134C-63.4517 101.31 -61.8091 102.909 -55.239 102.909C-48.6688 102.909 -47.0262 101.31 -47.0262 94.9134C-47.0262 88.5166 -48.6688 86.9174 -55.239 86.9174C-61.8091 86.9174 -63.4517 88.5166 -63.4517 94.9134ZM-258.442 104.774C-261.211 124.441 -262.046 125.298 -278.458 125.298C-286.28 125.298 -305.041 127.521 -320.149 130.24C-400.352 144.671 -476.398 182.876 -532.938 237.149C-568.043 270.841 -589.475 299.847 -612.175 344.388C-634.651 388.487 -646.875 427.124 -652.335 471.329C-656.455 504.659 -657.273 505.756 -678.103 505.862C-686.411 505.907 -686.615 505.427 -685.265 489.115C-670.916 315.734 -550.852 166.196 -381.765 111.11C-342.606 98.3517 -304.052 90.8227 -275.715 90.4037L-256.379 90.1158L-258.442 104.774ZM-489.857 109.946C-495.541 115.479 -494.703 127.687 -488.405 131.119C-480.252 135.562 -470.971 131.858 -468.757 123.277C-465.298 109.853 -480.137 100.482 -489.857 109.946ZM-9.01428 111.132C-15.8998 117.84 -14.6121 124.79 -5.38098 130.748C1.06763 134.909 2.46051 134.689 8.8205 128.497C15.1804 122.304 15.4071 120.948 11.1332 114.67C5.01306 105.682 -2.12543 104.429 -9.01428 111.132ZM-580.299 124.224C-584.14 127.962 -582.688 130.899 -576.186 132.555C-570.47 134.011 -560.724 156.339 -564.288 159.809C-565.014 160.519 -572.366 156.572 -580.625 151.039C-597.109 139.998 -599.087 142.067 -590.71 161.587C-583.338 178.762 -584.455 179.943 -600.043 171.461L-614.303 163.701L-617.805 171.185C-620.949 177.899 -620.578 178.535 -614.208 177.349C-609.832 176.533 -601.646 179.882 -592.855 186.08C-585.017 191.61 -577.832 195.388 -576.896 194.473C-575.957 193.558 -577.566 186.013 -580.477 177.704C-583.384 169.394 -585.142 161.99 -584.386 161.254C-583.627 160.516 -577.435 163.599 -570.621 168.109C-563.808 172.615 -557.553 175.641 -556.726 174.835C-555.894 174.026 -557.793 164.095 -560.944 152.763C-566.4 133.137 -575.569 119.618 -580.299 124.224ZM-192.526 130.019C-175.891 132.527 -156.154 136.182 -148.667 138.143C-141.184 140.107 -134.367 141.034 -133.52 140.209C-130.924 137.686 -175.388 128.912 -199.783 127.137C-221.189 125.58 -220.69 125.778 -192.526 130.019ZM-262.348 140.491C-263.373 147.089 -265.978 167.597 -268.133 186.068L-272.055 219.651L-298.336 224.675C-334.972 231.68 -356.443 238.95 -387.832 254.987C-474.762 299.39 -533.628 378.061 -549.856 471.524C-552.583 487.228 -554.981 493.113 -558.654 493.113C-563.785 493.113 -563.726 488.319 -558.138 451.534C-557.077 444.558 -558.135 446.369 -560.937 456.332C-563.414 465.127 -565.582 477 -565.756 482.718C-565.93 488.437 -566.499 493.113 -567.018 493.113C-567.537 493.113 -585.559 495.237 -607.063 497.834C-628.567 500.434 -646.885 501.854 -647.769 500.997C-648.649 500.137 -647.621 486.63 -645.479 470.977C-622.204 300.768 -488.701 164.414 -314.762 133.201C-302.114 130.931 -284.726 128.944 -276.122 128.784L-260.479 128.497L-262.348 140.491ZM-533.02 144.367C-539.436 148.227 -535.648 158.763 -527.439 159.905C-521.526 160.724 -520.08 159.377 -520.08 153.051C-520.08 144.559 -526.352 140.353 -533.02 144.367ZM-124.226 144.488C-115.195 148.266 -110.008 148.266 -116.013 144.488C-118.723 142.784 -123.158 141.466 -125.869 141.565C-129.117 141.68 -128.559 142.675 -124.226 144.488ZM39.477 149.536C38.3831 152.309 39.9073 156.937 42.864 159.815C47.8442 164.661 48.6391 164.661 53.6193 159.815C60.334 153.275 57.2527 144.488 48.2416 144.488C44.5131 144.488 40.5709 146.759 39.477 149.536ZM92.8828 148.877C94.0063 151.723 88.0635 156.863 75.9515 163.519C63.4221 170.405 58.3795 174.828 60.6035 176.994C62.8242 179.156 67.2526 178.532 74.0888 175.091C87.1109 168.537 113.944 164.731 113.944 169.442C113.944 171.329 106.496 176.821 97.39 181.647C78.6879 191.556 76.6249 200.006 92.6201 201.186C100.156 201.743 100.987 201.321 96.1844 199.37C90.8066 197.188 92.3539 195.368 107.081 186.547C128.024 174 128.68 166.09 108.983 163.66C97.1075 162.192 96.4931 161.683 102.446 158.245L109.016 154.455L102.446 149.574C94.21 143.452 90.6424 143.193 92.8828 148.877ZM-177.609 166.321C-179.866 175.692 -181.594 186.487 -181.446 190.309C-181.232 195.909 -180.24 195.167 -176.351 186.483C-173.693 180.557 -171.965 169.762 -172.51 162.495L-173.502 149.286L-177.609 166.321ZM-96.3027 154.084C-93.5925 155.788 -89.8967 157.183 -88.0899 157.183C-86.2831 157.183 -87.0223 155.788 -89.7325 154.084C-92.4427 152.379 -96.1384 150.984 -97.9452 150.984C-99.752 150.984 -99.0129 152.379 -96.3027 154.084ZM-306.056 165.278C-306.165 172.315 -304.223 182.389 -301.74 187.667L-297.226 197.262L-297.213 187.667C-297.206 182.389 -299.148 172.315 -301.529 165.278L-305.859 152.484L-306.056 165.278ZM-76.3194 161.673C-72.939 164.619 -53.5964 173.271 -53.5964 171.838C-53.5964 169.996 -71.809 160.48 -75.3339 160.48C-76.6282 160.48 -77.0717 161.018 -76.3194 161.673ZM-371.991 167.984C-372.136 169.471 -369.935 178.443 -367.106 187.916C-361.89 205.392 -355.789 213.603 -355.868 203.048C-355.911 197.092 -371.528 163.135 -371.991 167.984ZM-115.543 183.221C-123.017 200.726 -124.571 210.03 -119.515 206.988C-116.066 204.913 -105.008 170.13 -107.137 168.057C-107.889 167.325 -111.67 174.15 -115.543 183.221ZM-43.7411 177.848C-43.7411 178.727 -40.7845 180.985 -37.1709 182.869C-33.5573 184.753 -30.6007 185.572 -30.6007 184.692C-30.6007 183.813 -33.5573 181.555 -37.1709 179.671C-40.7845 177.787 -43.7411 176.968 -43.7411 177.848ZM-635.164 199.661C-635.259 212.262 -635.617 212.806 -640.055 207.091C-645.305 200.339 -645.584 200.432 -651.116 210.782C-654.201 216.561 -654.07 217.591 -650.426 216.228C-647.618 215.179 -641.199 221.237 -633.334 232.355C-619.113 252.46 -611.002 251.951 -621.879 231.638C-629.858 216.734 -634.605 194.147 -629.362 196.034C-627.487 196.709 -620.972 203.649 -614.888 211.456C-608.804 219.264 -602.352 225.74 -600.552 225.849C-598.752 225.958 -596.952 221.01 -596.547 214.853C-596.015 206.688 -596.528 205.328 -598.443 209.838C-600.756 215.279 -602.336 214.226 -611.652 201.043C-625.739 181.11 -635.016 180.563 -635.164 199.661ZM116.45 197.47C98.346 207.036 102.653 227.922 123.654 232.412C131.121 234.012 132.419 235.703 131.144 242.19C129.84 248.833 130.868 250.035 137.846 250.035C146.272 250.035 151.19 243.952 147.31 238.326C146.124 236.602 139.282 232.953 132.107 230.212C116.611 224.298 110.56 216.868 116.513 211.073C119.742 207.929 122.531 208.239 130.087 212.582C152.235 225.321 173.177 214.866 155.375 199.955C145.067 191.323 129.919 190.357 116.45 197.47ZM-431.264 199.789C-431.478 204.334 -418.843 226.377 -413.597 230.615C-409.057 234.283 -408.847 233.714 -411.754 225.606C-415.092 216.292 -431.048 195.177 -431.264 199.789ZM-59.7626 213.663C-70.5541 229.527 -72.1112 234.043 -66.7926 234.043C-63.2184 234.043 -45.7187 202.267 -48.0446 200.003C-48.8461 199.223 -54.1188 205.37 -59.7626 213.663ZM152.934 203.153C157.655 208.69 154.432 211.668 143.782 211.607C133.05 211.543 125.563 207.043 128.5 202.418C131.647 197.457 148.513 197.966 152.934 203.153ZM8.8205 212.864C8.8205 213.526 11.4091 216.046 14.5694 218.461C19.7795 222.437 19.8945 222.325 15.8112 217.252C11.5175 211.923 8.8205 210.231 8.8205 212.864ZM-210.795 222.788C-209.924 223.636 -198.223 226.463 -184.787 229.076C-171.354 231.686 -156.666 234.632 -152.149 235.62L-143.937 237.421L-152.149 233.932C-165.907 228.082 -214.924 218.771 -210.795 222.788ZM-273.698 230.615C-273.698 238.077 -280.485 286.468 -281.697 287.665C-282.17 288.131 -291.283 290.697 -301.946 293.364C-329.798 300.33 -364.025 316.92 -388.821 335.471L-410.319 351.552L-420.029 343.809C-466.5 306.753 -452.345 323.336 -382.106 388.232C-319.798 445.806 -249.342 514.795 -257.272 510.471C-259.983 508.993 -277.272 498.307 -295.695 486.726L-329.19 465.671L-374.537 471.268C-399.478 474.348 -424.609 476.923 -430.384 476.993L-440.883 477.121L-434.894 460.176C-426.787 437.231 -417.572 420.174 -403.762 402.56C-397.398 394.446 -393.542 386.994 -395.191 386.002C-398.696 383.891 -421.156 412.255 -430.621 430.745C-434.221 437.781 -439.789 451.681 -442.992 461.638C-448.432 478.532 -449.572 479.821 -460.16 481.023C-471.477 482.309 -471.5 482.287 -469.914 470.779C-466.54 446.286 -440.909 395.949 -421.015 374.741C-415.956 369.348 -413.545 364.429 -415.407 363.307C-417.207 362.225 -420.834 364 -423.466 367.256C-448.301 397.955 -464.48 428.925 -472.772 461.635L-478.162 482.907L-491.73 484.724C-499.194 485.725 -514.538 487.487 -525.833 488.642L-546.368 490.743L-544.42 479.933C-532.623 414.43 -507.137 363.866 -462.834 318.072C-414.228 267.831 -344.794 233.122 -276.162 224.749C-274.805 224.583 -273.698 227.221 -273.698 230.615ZM-481.254 243.824C-470.337 259.902 -461.832 267.953 -458.84 265.042C-457.769 263.996 -464.598 255.514 -474.02 246.194L-491.152 229.246L-481.254 243.824ZM-5.51245 246.699C-21.1462 262.97 -25.7979 272.351 -14.9702 265.768C-9.72723 262.58 13.8138 230.845 10.9393 230.845C10.2692 230.845 2.86456 237.981 -5.51245 246.699ZM-129.495 243.933C-121.555 247.362 -114.469 249.6 -113.756 248.903C-112.334 247.521 -137.649 237.101 -141.538 237.469C-142.859 237.591 -137.439 240.501 -129.495 243.933ZM-96.3027 257.807C-96.3027 258.687 -93.3461 260.945 -89.7325 262.829C-86.1188 264.713 -83.1623 265.532 -83.1623 264.652C-83.1623 263.773 -86.1188 261.514 -89.7325 259.631C-93.3461 257.747 -96.3027 256.928 -96.3027 257.807ZM-79.8772 267.147C-79.8772 267.886 -76.0008 270.962 -71.2604 273.988C-66.52 277.011 -63.6456 277.903 -64.8741 275.971C-67.2164 272.28 -79.8772 264.831 -79.8772 267.147ZM-664.625 282.019C-668.238 285.538 -671.195 289.753 -671.195 291.387C-671.195 295.856 -661.484 304.408 -656.412 304.408C-650.784 304.408 -641.629 295.66 -641.629 290.284C-641.629 286.139 -651.829 275.623 -655.85 275.623C-657.062 275.623 -661.011 278.501 -664.625 282.019ZM-524.43 291.304C-515.08 300.269 -505.609 307.606 -503.389 307.606C-497.38 307.606 -509.476 295.613 -526.65 284.536L-541.433 275.002L-524.43 291.304ZM166.43 282.093C161.072 287.309 160.477 289.82 163.358 295.066C168.085 303.663 174.327 305.694 182.674 301.344C190.775 297.122 191.538 287.658 184.34 280.647C177.563 274.052 174.429 274.305 166.43 282.093ZM40.2753 290.831C23.794 303.033 15.1147 314.659 27.3287 308.169C33.4949 304.894 60.7217 278.808 57.9426 278.837C57.1246 278.847 49.1747 284.242 40.2753 290.831ZM-201.426 293.153C-201.426 296.118 -198.423 298.011 -193.729 298.011C-169.636 298.011 -101.608 331.281 -84.299 351.53C-81.7004 354.572 -79.8147 354.872 -78.3003 352.486C-72.7583 343.755 -129.16 308.534 -166.932 297.138C-195.798 288.429 -201.426 287.78 -201.426 293.153ZM-38.8135 298.011C-35.5448 301.53 -32.1283 304.408 -31.2249 304.408C-30.3215 304.408 -32.2597 301.53 -35.5283 298.011C-38.797 294.493 -42.2135 291.615 -43.1169 291.615C-44.0203 291.615 -42.0821 294.493 -38.8135 298.011ZM-282.939 310.274C-284.095 322.082 -284.759 322.69 -300.948 326.73C-320.81 331.684 -354.383 348.201 -371.623 361.496L-383.893 370.957L-392.855 364.602C-397.786 361.106 -401.817 357.102 -401.817 355.701C-401.817 351.635 -368.644 328.367 -349.084 318.715C-326.145 307.389 -300.623 298.542 -290.038 298.245C-282.364 298.03 -281.829 298.936 -282.939 310.274ZM-485.899 311.604L-492.157 318.801L-484.765 312.708C-480.699 309.356 -477.374 306.119 -477.374 305.512C-477.374 302.953 -480.019 304.843 -485.899 311.604ZM0.607727 310.805C3.8764 314.323 7.29291 317.202 8.19629 317.202C9.09967 317.202 7.1615 314.323 3.89282 310.805C0.624146 307.287 -2.79236 304.408 -3.69574 304.408C-4.59912 304.408 -2.66095 307.287 0.607727 310.805ZM-15.8177 320.4C-12.5491 323.918 -9.13257 326.797 -8.22919 326.797C-7.32581 326.797 -9.26398 323.918 -12.5327 320.4C-15.8013 316.882 -19.2178 314.003 -20.1212 314.003C-21.0247 314.003 -19.0864 316.882 -15.8177 320.4ZM-500.79 329.196C-504.874 334.268 -504.759 334.38 -499.548 330.405C-494.075 326.224 -492.338 323.598 -495.041 323.598C-495.721 323.598 -498.31 326.116 -500.79 329.196ZM-198.141 326.64C-198.141 328.693 -196.837 329.589 -195.24 328.63C-192.08 326.726 -163.174 335.733 -145.293 344.193C-136.075 348.552 -135.215 348.616 -140.454 344.545C-146.818 339.603 -174.005 328.802 -189.793 324.945C-195.161 323.634 -198.141 324.238 -198.141 326.64ZM12.1056 324.807C12.1056 325.47 14.6942 327.99 17.8545 330.405C23.0646 334.38 23.1796 334.268 19.0963 329.196C14.8026 323.867 12.1056 322.175 12.1056 324.807ZM-291.874 383.248C-296.145 419.598 -298.76 432.257 -301.766 431.132C-308.996 428.432 -375.536 377.239 -375.536 374.376C-375.536 370.826 -351.443 353.718 -334.512 345.242C-314.39 335.17 -288.642 327.277 -287.275 330.763C-286.612 332.455 -288.681 356.075 -291.874 383.248ZM-687.62 340.966C-687.62 347.66 -686.053 349.186 -679.178 349.186C-672.305 349.186 -670.932 347.849 -671.786 341.989C-672.463 337.364 -675.479 334.428 -680.229 333.769C-686.247 332.938 -687.62 334.275 -687.62 340.966ZM-572.642 334.492C-572.642 336.459 -542.343 355.582 -539.229 355.582C-531.539 355.582 -538.378 348.37 -552.823 341.244C-569.051 333.238 -572.642 332.013 -572.642 334.492ZM193.285 336.024C186.804 340.022 190.082 350.628 198.15 351.754C206.386 352.902 211.054 344.007 205.581 337.585C201.252 332.506 199.373 332.266 193.285 336.024ZM30.0521 348.386C35.1144 355.861 39.8843 361.979 40.6498 361.979C43.0216 361.979 30.4429 342.514 25.5087 338.545C22.9431 336.482 24.9865 340.911 30.0521 348.386ZM74.2891 342.712C67.8339 346.035 60.6494 350.99 58.317 353.724C54.5687 358.122 55.1633 358.327 63.4779 355.502C73.5698 352.074 94.7586 336.603 89.3054 336.648C87.4986 336.664 80.741 339.392 74.2891 342.712ZM-132.439 350.305C-132.439 351.044 -128.562 354.121 -123.822 357.146C-119.082 360.169 -116.207 361.061 -117.436 359.129C-119.778 355.438 -132.439 347.989 -132.439 350.305ZM-535.021 381.467C-537.912 386.907 -539.692 391.926 -538.979 392.62C-538.267 393.314 -535.225 388.865 -532.219 382.727C-525.465 368.936 -527.804 367.88 -535.021 381.467ZM50.5248 382.727C53.5307 388.865 56.5726 393.314 57.2855 392.62C58.7868 391.158 48.8165 371.574 46.5662 371.574C45.7416 371.574 47.5222 376.593 50.5248 382.727ZM-706.418 391.564C-713.651 400.673 -713.819 403.638 -707.449 409.84C-703.77 413.422 -699.387 416.352 -697.709 416.352C-693.12 416.352 -684.335 406.897 -684.335 401.959C-684.335 396.432 -693.336 387.566 -698.951 387.566C-701.309 387.566 -704.67 389.367 -706.418 391.564ZM-590.71 398.831C-573.739 406.613 -560.973 408.999 -564.294 403.769C-566.137 400.868 -598.762 390.496 -604.356 391.03C-605.884 391.177 -599.744 394.686 -590.71 398.831ZM205.844 395.658C202.658 399.397 202.546 402.41 205.374 408.452C210 418.335 223.83 419.221 228.922 409.955C236.672 395.857 216.389 383.29 205.844 395.658ZM100.143 399.036C91.6509 401.578 83.8028 405.077 82.7023 406.808C79.1675 412.373 92.124 410.093 109.016 402.17C127.468 393.519 123.382 392.073 100.143 399.036ZM-549.324 414.653C-553.115 424.514 -556.141 434.33 -556.046 436.463C-555.95 438.593 -552.327 431.036 -547.99 419.662C-543.654 408.292 -540.632 398.476 -541.269 397.852C-541.91 397.229 -545.536 404.79 -549.324 414.653ZM58.4288 397.161C58.3073 398.041 61.9274 408.116 66.4772 419.55C71.027 430.984 73.8458 436.022 72.7419 430.745C70.853 421.722 58.9084 393.698 58.4288 397.161ZM-953.713 456.143C-953.713 470.529 -949.38 477.815 -945.97 469.16C-944.788 466.164 -941.959 465.217 -938.234 466.57C-929.936 469.583 -877.837 503.463 -879.302 504.89C-880.929 506.476 -940.704 499.807 -944.305 497.642C-945.865 496.702 -947.143 493.142 -947.143 489.726C-947.143 486.31 -948.621 483.518 -950.428 483.518C-952.304 483.518 -953.713 493.113 -953.713 505.907C-953.713 518.7 -952.304 528.296 -950.428 528.296C-948.621 528.296 -947.143 526.092 -947.143 523.399C-947.143 513.337 -936.736 515.176 -913.481 529.348C-873.002 554.02 -872.676 554.554 -899.509 552.284C-936.693 549.133 -944.554 547.179 -946.309 540.654C-947.189 537.376 -949.216 534.692 -950.812 534.692C-954.837 534.692 -954.479 572.235 -950.428 574.672C-948.621 575.76 -947.143 574.359 -947.143 571.563C-947.143 568.765 -945.139 565.726 -942.688 564.812C-940.238 563.897 -916.345 565.384 -889.591 568.122C-846.599 572.516 -834.241 572.67 -839.007 568.749C-839.763 568.128 -857.746 556.662 -878.977 543.267C-900.209 529.869 -917.577 518.438 -917.577 517.862C-917.577 517.287 -900.271 518.62 -879.122 520.83C-842.493 524.653 -832.969 524.278 -840.801 519.327C-913.793 473.178 -944.154 452.462 -945.688 447.766C-949.18 437.049 -953.713 441.782 -953.713 456.143ZM75.1729 445.137C75.1006 447.776 76.9995 460.01 79.3942 472.324C82.18 486.646 83.747 490.679 83.747 483.518C83.747 472.675 75.4357 435.475 75.1729 445.137ZM-718.336 455.586C-725.543 460.717 -722.311 470.724 -713.448 470.724C-705.209 470.724 -701.845 461.9 -707.853 456.053C-711.726 452.283 -713.579 452.199 -718.336 455.586ZM-607.135 459.348C-590.953 464.875 -573.039 465.86 -578.089 460.944C-579.997 459.086 -590.273 456.955 -600.92 456.21L-620.276 454.86L-607.135 459.348ZM226.136 457.563C219.655 461.561 222.933 472.167 231.002 473.293C239.237 474.441 243.905 465.546 238.432 459.124C234.103 454.045 232.224 453.805 226.136 457.563ZM357.041 496.392V538.051L365.398 541.143C369.994 542.845 377.668 545.193 382.445 546.36C390.917 548.429 390.841 548.196 379.501 537.155C368.417 526.364 363.611 514.344 363.611 497.412C363.611 486.617 369.892 485.408 393.072 491.741L413.226 497.249L412.237 508.648C411.445 517.725 409.573 520.472 403.032 522.132C394.314 524.346 394.714 524.627 415.841 531.212C433.163 536.611 439.027 535.674 430.049 528.948C421.281 522.375 415.177 497.262 423.045 500.118C425.588 501.042 435.43 503.713 444.917 506.057L462.164 510.314V525.439C462.164 545.509 459.736 550.684 450.315 550.684C445.991 550.684 442.453 552.124 442.453 553.883C442.453 555.642 444.487 557.081 446.97 557.081C449.454 557.081 456.106 557.98 461.753 559.08L472.019 561.079V522.299C472.019 498.576 470.745 483.518 468.734 483.518C466.927 483.518 465.449 485.677 465.449 488.316C465.449 493.852 454.733 494.613 440.479 490.091C435.242 488.431 415.805 482.613 397.283 477.163C369.514 468.988 363.611 466.154 363.611 460.992C363.611 457.55 362.133 454.733 360.326 454.733C358.306 454.733 357.041 470.75 357.041 496.392ZM102.446 462.613L92.5905 467.008L102.446 467.021C107.866 467.027 118.214 465.137 125.441 462.818L138.582 458.603L125.441 458.411C118.214 458.305 107.866 460.195 102.446 462.613ZM-689.263 553.083C-686.122 580.391 -677.233 627.993 -675.574 626.377C-674.779 625.603 -676.382 612.935 -679.135 598.222C-681.888 583.509 -684.545 563.2 -685.041 553.083C-685.534 542.967 -687.164 534.692 -688.658 534.692C-690.153 534.692 -690.426 542.967 -689.263 553.083ZM-72.1999 695.456C-73.4022 697.347 -72.7485 697.852 -70.6953 696.617C-68.6815 695.405 -63.7802 698.767 -59.6771 704.169C-55.6102 709.523 -48.5143 716.291 -43.9053 719.211C-34.6512 725.07 -34.7235 724.949 -55.0156 700.244C-62.0621 691.669 -66.6677 683.059 -65.6264 680.418C-64.4437 677.417 -65.3537 676.333 -68.1756 677.385C-70.5934 678.291 -75.6131 674.852 -79.3614 669.729C-84.6766 662.462 -85.2976 659.583 -82.1998 656.541C-79.0953 653.5 -79.3909 653.081 -83.5532 654.626C-87.4887 656.081 -96.3126 647.311 -117.436 620.956C-133.148 601.356 -146.719 583.5 -147.596 581.277C-148.785 578.258 -136.043 575.82 -97.2849 571.663C-68.7407 568.598 -37.621 565 -28.1369 563.67C-11.8198 561.38 -10.8901 561.626 -10.8901 568.259C-10.8901 577.589 -21.0904 606.016 -31.8655 626.716C-36.6519 635.915 -39.7299 643.438 -38.7083 643.438C-35.2721 643.438 -14.3986 597.246 -9.79944 579.47L-5.24957 561.879L20.6764 558.335C34.9337 556.384 54.5589 553.911 64.2861 552.837L81.9731 550.883L79.9428 567.575C67.7025 668.155 -8.44934 766.128 -108.826 810.439C-132.442 820.865 -186.521 835.341 -201.846 835.341C-207.943 835.341 -211.281 833.685 -211.281 830.656C-211.281 824.435 -203.154 820.641 -184.031 817.942C-175.365 816.717 -162.8 813.624 -156.108 811.072C-149.413 808.516 -147.632 807.227 -152.149 808.203C-179.291 814.082 -206.445 818.726 -207.523 817.677C-208.6 816.627 -202.29 759.395 -199.593 745.786C-199.07 743.148 -198.532 737.295 -198.394 732.778C-198.174 725.678 -195.654 723.804 -179.784 718.933C-169.688 715.833 -162.067 712.677 -162.846 711.919C-163.628 711.157 -170.595 712.709 -178.332 715.366C-186.068 718.024 -192.95 720.199 -193.627 720.199C-196.186 720.199 -194.396 694.692 -188.844 652.061L-183.095 607.91L-204.721 575.299C-216.616 557.363 -227.493 540.529 -228.889 537.891C-230.289 535.252 -195.128 568.874 -150.756 612.602C-106.385 656.334 -71.0337 693.617 -72.1999 695.456ZM-654.769 553.531C-654.769 560.372 -652.447 577.896 -649.605 592.474C-620.657 741.056 -516.148 856.275 -368.966 901.874C-331.736 913.408 -260.558 923.902 -260.558 917.857C-260.558 916.453 -266.277 915.301 -273.268 915.301C-309.87 915.301 -374.685 898.33 -419.885 876.914C-545.106 817.577 -633.387 695.818 -646.724 564.057C-649.181 539.775 -654.769 532.463 -654.769 553.531ZM-566.968 564.277C-550.615 690.483 -454.904 799.606 -332.137 832.018C-294.857 841.863 -270.413 844.885 -270.413 839.656C-270.413 837.036 -274.122 835.341 -279.848 835.341C-295.173 835.341 -349.252 820.865 -372.868 810.439C-443.216 779.385 -503.471 721.443 -535.409 654.14C-547.389 628.895 -562.787 575.878 -562.787 559.87C-562.787 554.817 -564.124 550.684 -565.76 550.684C-567.396 550.684 -567.938 556.803 -566.968 564.277ZM-552.931 555.274C-552.931 563.842 -543.431 603.381 -537.127 621.049C-500.429 723.903 -410.02 798.886 -297.804 819.544C-286.671 821.591 -275.584 822.57 -273.166 821.719C-270.748 820.865 -274.683 819.145 -281.911 817.894C-355.034 805.232 -412.796 776.44 -459.664 729.299C-505.606 683.088 -533.175 629.003 -544.594 562.678C-546.561 551.257 -552.931 545.599 -552.931 555.274ZM-475.114 567.476C-469.444 592.295 -447.673 643.438 -442.779 643.438C-441.869 643.438 -445.042 635.915 -449.828 626.716C-460.811 605.62 -470.804 577.535 -470.804 567.773C-470.804 563.654 -472.144 560.279 -473.78 560.279C-475.419 560.279 -476.021 563.516 -475.114 567.476ZM-447.808 567.773C-447.808 590.316 -405.598 664.061 -396.002 658.285C-393.637 656.861 -394.964 653.599 -399.839 648.853C-415.706 633.404 -444.247 574.001 -439.438 566.43C-438.409 564.805 -439.871 563.478 -442.687 563.478C-445.502 563.478 -447.808 565.413 -447.808 567.773ZM-721.815 575.072C-723.034 578.158 -722.025 582.527 -719.532 584.952C-713.251 591.07 -703.464 586.657 -704.693 578.264C-705.954 569.664 -718.747 567.278 -721.815 575.072ZM223.442 578.12C222.349 580.893 223.571 585.227 226.159 587.744C232.499 593.92 243.478 586.781 240.246 578.587C237.526 571.682 226.103 571.365 223.442 578.12ZM-607.135 580.979L-620.276 585.195L-607.135 585.387C-599.908 585.492 -589.56 583.602 -584.14 581.184L-574.284 576.79L-584.14 576.777C-589.56 576.77 -599.908 578.661 -607.135 580.979ZM102.446 584.383C107.866 586.801 118.953 588.713 127.084 588.633L141.867 588.493L125.441 584.044C116.407 581.597 105.32 579.681 100.803 579.793C92.7809 579.985 92.8171 580.09 102.446 584.383ZM-710.616 633.842C-718.366 647.941 -698.083 660.508 -687.538 648.139C-684.352 644.4 -684.24 641.388 -687.068 635.346C-691.694 625.463 -705.524 624.577 -710.616 633.842ZM207.802 632.47C201.206 638.896 201.258 644.832 207.966 651.367C214.701 657.92 221.876 656.593 227.95 647.669C232.214 641.407 232.007 640.044 225.877 634.076C217.713 626.128 214.606 625.85 207.802 632.47ZM-674.017 633.842C-674.017 636.481 -672.749 641.519 -671.195 645.037C-669.414 649.07 -668.373 649.659 -668.373 646.636C-668.373 643.997 -669.641 638.96 -671.195 635.442C-672.975 631.409 -674.017 630.82 -674.017 633.842ZM188.092 638.867C186.886 643.556 186.531 648.008 187.303 648.763C188.078 649.515 189.701 646.297 190.91 641.611C192.116 636.922 192.471 632.47 191.699 631.716C190.923 630.964 189.3 634.182 188.092 638.867ZM-590.71 641.627C-599.744 645.865 -605.884 649.444 -604.356 649.582C-598.719 650.094 -566.131 639.721 -564.294 636.83C-560.855 631.408 -574.015 633.798 -590.71 641.627ZM82.6005 640.028C84.7326 643.386 120.458 654.152 122.587 652.08C124.374 650.343 91.4769 637.041 85.3896 637.041C82.814 637.041 81.5591 638.384 82.6005 640.028ZM-54.0168 661.828C-58.1002 666.901 -57.9853 667.013 -52.7751 663.037C-49.6149 660.623 -47.0262 658.102 -47.0262 657.44C-47.0262 654.808 -49.7232 656.5 -54.0168 661.828ZM176.725 672.578C174.701 678.23 173.621 683.414 174.324 684.099C175.027 684.783 177.257 680.718 179.281 675.067C181.305 669.415 182.385 664.23 181.682 663.546C180.979 662.862 178.749 666.927 176.725 672.578ZM-661.238 673.822C-661.238 675.582 -659.805 679.18 -658.054 681.818C-656.303 684.457 -654.871 685.177 -654.871 683.418C-654.871 681.659 -656.303 678.06 -658.054 675.422C-659.805 672.783 -661.238 672.063 -661.238 673.822ZM-106.578 677.82C-110.662 682.893 -110.547 683.005 -105.337 679.029C-102.176 676.615 -99.5878 674.094 -99.5878 673.432C-99.5878 670.8 -102.285 672.492 -106.578 677.82ZM-545.885 688.439C-556.17 692.45 -573.414 704.524 -571.505 706.379C-569.301 708.528 -545.017 695.946 -539.991 690.048C-535.129 684.345 -535.28 684.304 -545.885 688.439ZM-654.769 689.36C-654.769 692.837 -631.882 736.191 -630.049 736.191C-629.146 736.191 -633.771 725.758 -640.331 713.003C-652.634 689.076 -654.769 685.58 -654.769 689.36ZM54.8118 691.359C54.8118 694.839 87.4493 711.877 89.7752 709.612C91.4473 707.984 61.6613 688.215 57.5352 688.215C56.0372 688.215 54.8118 689.629 54.8118 691.359ZM158.982 712.315C152.31 725.448 147.557 736.191 148.424 736.191C150.618 736.191 173.772 691.023 172.307 689.6C171.653 688.96 165.658 699.186 158.982 712.315ZM-688.964 696.611C-690.183 699.697 -689.174 704.066 -686.681 706.491C-680.4 712.609 -670.613 708.195 -671.842 699.803C-673.103 691.202 -685.896 688.816 -688.964 696.611ZM189.501 702.608C189.501 709.005 191.143 710.604 197.714 710.604C204.284 710.604 205.926 709.005 205.926 702.608C205.926 696.211 204.284 694.612 197.714 694.612C191.143 694.612 189.501 696.211 189.501 702.608ZM-148.864 704.207C-155.188 707.578 -159.179 710.396 -157.734 710.47C-154.255 710.649 -135.724 701.268 -135.724 699.326C-135.724 697.235 -135.918 697.305 -148.864 704.207ZM-524.026 748.917L-541.433 765.597L-526.46 755.96C-509.946 745.332 -501.677 737.051 -504.667 734.138C-505.741 733.095 -514.453 739.745 -524.026 748.917ZM22.2269 741.814C24.2111 744.91 33.462 752.209 42.7884 758.036L59.7395 768.636L42.7358 752.413C25.6467 736.108 15.0555 730.635 22.2269 741.814ZM-625.203 745.786C-623.268 749.305 -620.949 752.183 -620.046 752.183C-619.142 752.183 -619.983 749.305 -621.918 745.786C-623.853 742.268 -626.173 739.389 -627.076 739.389C-627.979 739.389 -627.138 742.268 -625.203 745.786ZM-39.1255 746.586L-45.3837 753.782L-37.9922 747.689C-31.0475 741.964 -29.106 739.389 -31.7341 739.389C-32.3582 739.389 -35.6827 742.626 -39.1255 746.586ZM-664.625 752.183C-668.238 755.701 -671.195 759.917 -671.195 761.551C-671.195 766.019 -661.484 774.572 -656.412 774.572C-650.784 774.572 -641.629 765.824 -641.629 760.448C-641.629 756.303 -651.829 745.786 -655.85 745.786C-657.062 745.786 -661.011 748.665 -664.625 752.183ZM166.019 752.656C160.129 758.391 159.941 759.763 164.192 766.01C170.102 774.687 176.331 776.037 184.3 770.363C188.768 767.183 189.892 763.736 188.377 757.86C185.588 747.04 174.449 744.449 166.019 752.656ZM-73.3069 771.658C-80.3831 777.294 -80.5211 777.725 -74.3122 774.77C-70.3471 772.883 -66.1948 769.909 -65.0844 768.159C-62.118 763.486 -64.1087 764.334 -73.3069 771.658ZM-467.699 778.832C-470.505 780.885 -477.742 789.764 -483.786 798.56L-494.772 814.552L-480.886 801.758C-467.581 789.499 -459.191 778.416 -461.51 776.158C-462.108 775.573 -464.894 776.775 -467.699 778.832ZM-91.5688 782.744C-97.6922 787.522 -97.6528 787.58 -90.5537 784.231C-86.4868 782.312 -83.1623 780.073 -83.1623 779.257C-83.1623 776.811 -84.8672 777.517 -91.5688 782.744ZM-21.1199 783.367C-19.3953 786.444 -11.7114 794.722 -4.04724 801.758L9.88489 814.552L2.24695 803.357C-7.71674 788.76 -17.8875 777.77 -21.4321 777.77C-22.9892 777.77 -22.8479 780.291 -21.1199 783.367ZM-595.638 788.574C-595.638 789.236 -593.052 791.757 -589.889 794.172C-584.678 798.147 -584.563 798.035 -588.647 792.963C-592.94 787.634 -595.638 785.942 -595.638 788.574ZM-629.474 798.051C-632.02 804.509 -626.856 810.531 -619.882 809.236C-616.468 808.603 -613.236 804.883 -612.654 800.927C-611.813 795.169 -613.196 793.762 -619.694 793.762C-624.146 793.762 -628.548 795.691 -629.474 798.051ZM-125.869 798.56C-130.386 801.074 -132.603 803.13 -130.796 803.13C-128.989 803.13 -123.815 801.074 -119.298 798.56C-114.781 796.046 -112.564 793.989 -114.371 793.989C-116.177 793.989 -121.352 796.046 -125.869 798.56ZM130.349 798.582C126.713 802.849 126.857 804.506 131.217 808.753C138.263 815.61 147.55 811.801 146.203 802.606C144.919 793.845 136.259 791.648 130.349 798.582ZM33.1466 810.554L26.8885 817.75L34.28 811.657C41.2247 805.932 43.1661 803.357 40.5381 803.357C39.9139 803.357 36.5894 806.594 33.1466 810.554ZM-559.501 827.345C-547.862 838.779 -537.6 848.135 -536.696 848.135C-535.793 848.135 -544.577 838.779 -556.216 827.345C-567.855 815.911 -578.118 806.556 -579.022 806.556C-579.925 806.556 -571.141 815.911 -559.501 827.345ZM84.2004 818.55L72.8798 830.544L85.199 819.522C91.9761 813.458 97.5181 808.062 97.5181 807.528C97.5181 805.084 94.739 807.387 84.2004 818.55ZM-426.619 826.063C-431.291 835.034 -434.454 843.014 -433.649 843.795C-431.977 845.423 -411.672 816.423 -411.672 812.406C-411.672 804.845 -419.116 811.648 -426.619 826.063ZM-70.0449 817.693C-65.8005 828.561 -53.4453 845.854 -51.3658 843.83C-49.1385 841.664 -62.1082 818.019 -68.2447 813.061C-72.9752 809.239 -73.1591 809.713 -70.0449 817.693ZM106.542 823.079C100.31 827.499 97.5181 832.328 97.5181 838.693C97.5181 849.248 105.054 854.532 120.103 854.532C131.177 854.532 134.538 857.561 130.504 863.912C128.674 866.797 124.814 867.463 118.651 865.956C110.212 863.896 109.863 864.168 114.082 869.522C116.598 872.711 119.078 875.926 119.597 876.668C122.038 880.147 136.939 862.15 136.939 855.724C136.939 850.025 134.252 847.709 124.62 845.106C117.846 843.273 110.54 841.767 108.388 841.757C102.075 841.728 99.9031 835.456 104.384 830.198C106.982 827.147 111.375 826.031 116.164 827.201C124.426 829.219 126.312 825.362 119.683 820.005C116.733 817.619 113.011 818.492 106.542 823.079ZM-623.847 822.365C-637.224 825.477 -641.629 828.343 -641.629 833.931C-641.629 840.171 -638.817 839.726 -632.299 832.456C-629.3 829.108 -621.205 825.426 -614.31 824.275C-602.927 822.372 -602.07 822.711 -604.974 827.959C-606.735 831.142 -612.007 837.232 -616.688 841.495C-627.165 851.036 -627.608 855.789 -617.812 853.499C-613.745 852.549 -604.507 850.773 -597.28 849.555L-584.14 847.342L-594.816 858.286C-607.336 871.119 -607.845 873.952 -598.637 879.553C-592.481 883.292 -591.981 883.096 -593.762 877.634C-595.151 873.37 -591.791 867.168 -582.553 856.95C-575.296 848.925 -569.357 841.648 -569.357 840.788C-569.357 839.272 -590.424 843.139 -603.808 847.111C-608.834 848.602 -607.457 845.627 -597.839 834.199L-585.342 819.349L-599.524 819.675C-607.323 819.858 -618.269 821.067 -623.847 822.365ZM10.1509 829.744L3.89282 836.94L11.2843 830.847C18.229 825.122 20.1705 822.548 17.5424 822.548C16.9182 822.548 13.5937 825.784 10.1509 829.744ZM-363.598 837.846C-367.363 843.779 -376.147 874.192 -374.547 875.753C-372.228 878.011 -358.332 842.41 -359.83 838.041C-360.865 835.015 -361.771 834.967 -363.598 837.846ZM-125.869 840.158C-125.869 846.51 -112.38 877.646 -110.445 875.763C-108.3 873.674 -119.331 838.898 -122.8 836.809C-124.489 835.795 -125.869 837.302 -125.869 840.158ZM-4.74036 840.938C-8.82373 846.011 -8.7088 846.123 -3.49866 842.147C-0.338379 839.733 2.25031 837.212 2.25031 836.55C2.25031 833.918 -0.446777 835.61 -4.74036 840.938ZM57.6765 844.137C53.5931 849.209 53.7081 849.321 58.9182 845.346C62.0785 842.931 64.6671 840.411 64.6671 839.749C64.6671 837.116 61.9701 838.808 57.6765 844.137ZM-305.741 857.407C-307.991 863.388 -309.703 874.182 -309.542 881.395L-309.246 894.511L-304.604 878.52C-302.052 869.724 -300.343 858.929 -300.807 854.532C-301.589 847.083 -301.927 847.278 -305.741 857.407ZM-184.481 856.131C-184.488 861.408 -182.546 871.483 -180.165 878.52L-175.835 891.313L-175.638 878.52C-175.529 871.483 -177.471 861.408 -179.954 856.131L-184.468 846.536L-184.481 856.131ZM66.4969 861.642C63.6849 865.55 61.5299 872.385 61.7106 876.834L62.0358 884.916L64.2466 877.224C66.8715 868.093 74.9955 862.39 81.7726 864.923C94.7619 869.775 100.646 904.257 88.0604 901.762C82.4067 900.643 81.5952 892.989 85.8034 880.519C87.5412 875.363 87.2259 873.607 84.8212 875.056C82.8699 876.229 79.5355 882.841 77.41 889.746C74.3615 899.648 74.4272 903.342 77.7221 907.203C83.3101 913.759 86.1713 913.392 94.1049 905.101C98.842 900.15 100.803 893.776 100.803 883.317C100.803 858.501 78.7701 844.578 66.4969 861.642ZM-39.0073 862.703C-45.1307 867.482 -45.0912 867.539 -37.9922 864.191C-33.9252 862.272 -30.6007 860.033 -30.6007 859.217C-30.6007 856.771 -32.3057 857.477 -39.0073 862.703ZM-561.955 871.323C-563.749 873.524 -566.213 880.72 -567.435 887.315C-568.749 894.412 -571.525 899.309 -574.238 899.309C-581.098 899.309 -583.246 893.853 -579.248 886.583C-575.234 879.281 -578.598 878.155 -586.62 884.117C-591.525 887.763 -591.321 888.93 -584.307 897.342C-578.131 904.75 -574.938 906.157 -568.089 904.484C-561.236 902.808 -559.153 899.914 -557.478 889.72C-554.791 873.348 -547.462 866.756 -541.207 875.084C-538.043 879.297 -537.705 882.719 -540.034 886.957C-543.756 893.728 -542.11 894.345 -532.991 889.592C-526.348 886.132 -526.486 885.741 -539.203 872.011C-544.515 866.276 -557.521 865.883 -561.955 871.323ZM-66.7368 876.92C-73.0606 880.291 -77.052 883.109 -75.6066 883.183C-72.1277 883.362 -53.5964 873.981 -53.5964 872.04C-53.5964 869.948 -53.7902 870.018 -66.7368 876.92ZM-93.0176 888.115C-97.5345 890.629 -99.752 892.685 -97.9452 892.685C-96.1384 892.685 -90.9644 890.629 -86.4474 888.115C-81.9304 885.601 -79.7129 883.544 -81.5197 883.544C-83.3265 883.544 -88.5005 885.601 -93.0176 888.115ZM38.3864 890.747C38.3864 899.239 44.6576 903.445 51.3264 899.431C57.7421 895.57 53.9544 885.035 45.7449 883.893C39.8318 883.074 38.3864 884.421 38.3864 890.747ZM-124.226 899.309C-128.559 901.123 -129.117 902.117 -125.869 902.232C-123.158 902.332 -118.723 901.014 -116.013 899.309C-110.008 895.532 -115.195 895.532 -124.226 899.309ZM-489.956 918.029C-492.43 919.593 -493.855 924.807 -493.241 930.042C-492.324 937.863 -490.692 939.289 -482.66 939.289C-470.948 939.289 -464.23 930.704 -469.513 922.497C-473.626 916.113 -483.511 913.951 -489.956 918.029ZM-10.233 919.139C-19.6284 928.286 -10.9821 942.247 2.89087 940.335C8.48212 939.564 10.7455 936.868 11.5471 930.042C13.0812 916.961 -0.837708 909.992 -10.233 919.139ZM-434.668 948.884C-434.668 955.281 -433.025 956.88 -426.455 956.88C-419.885 956.88 -418.242 955.281 -418.242 948.884C-418.242 942.487 -419.885 940.888 -426.455 940.888C-433.025 940.888 -434.668 942.487 -434.668 948.884ZM-65.5475 945.686C-68.1526 952.287 -64.6212 960.078 -59.0299 960.078C-56.4839 960.078 -52.5616 957.92 -50.3113 955.281C-47.0492 951.453 -47.0492 949.514 -50.3113 945.686C-52.5616 943.047 -56.4839 940.888 -59.0299 940.888C-61.5759 940.888 -64.5095 943.047 -65.5475 945.686ZM-373.66 958.706C-380.746 965.609 -380.129 971.618 -371.742 977.337C-358.647 986.267 -343.96 971.075 -354.613 959.615C-361.358 952.361 -366.87 952.099 -373.66 958.706ZM-126.69 957.136C-134.525 961.578 -134.025 975.018 -125.869 979.269C-112.061 986.462 -98.9505 968.375 -110.1 957.52C-114.847 952.898 -119.042 952.799 -126.69 957.136ZM-309.259 976.995C-312.094 980.321 -311.933 982.822 -308.612 987.249C-302.669 995.158 -292.591 991.343 -294 981.716C-295.228 973.333 -303.862 970.662 -309.259 976.995ZM-189.379 975.005C-193.542 979.055 -191.551 988.186 -186.058 990.239C-183.029 991.372 -178.539 990.342 -176.085 987.949C-173.627 985.56 -172.57 981.188 -173.732 978.239C-175.841 972.891 -185.22 970.953 -189.379 975.005ZM-241.678 1103.96C-258.915 1117.16 -255.949 1135.08 -232.66 1158.38C-213.673 1177.38 -211.179 1187.36 -222.631 1198.5C-229.438 1205.13 -233.245 1206.51 -240.19 1204.86C-252.87 1201.85 -261.415 1192.44 -261.836 1181.04C-262.397 1165.82 -265.837 1169.32 -269.959 1189.3C-274.769 1212.62 -274.677 1214.33 -268.862 1209.63C-265.052 1206.55 -260.689 1206.55 -248.33 1209.62C-226.951 1214.94 -209.888 1208.34 -202.894 1192.05C-196.124 1176.27 -199.448 1167.22 -219.918 1145.69C-229.622 1135.49 -237.562 1124.18 -237.562 1120.55C-237.562 1113.19 -226.136 1104.01 -216.971 1104.01C-208.035 1104.01 -194.898 1118.45 -194.563 1128.65C-194.337 1135.5 -193.203 1133.86 -189.698 1121.6C-183.486 1099.86 -183.552 1095.66 -190.026 1100.89C-193.903 1104.02 -196.938 1104.11 -203.321 1101.28C-215.857 1095.72 -232.431 1096.87 -241.678 1103.96Z" fill="white" fill-opacity="0.2"/>
</svg>
